# xmcd CD database file
#
# Track frame offsets:
#	150
#	13550
#	30362
#	45280
#	59215
#	69145
#	83020
#	97432
#	109565
#	122500
#	132742
#	145387
#
# Disc length: 2086 seconds
#
# Revision: 0
# Processed by: cddbd v1.4PL0 Copyright (c) Steve Scherf et al.
# Submitted via: Feurio! 1.63 - http://www.feurio.com
#
DISCID=a108240c
DTITLE=Bruce Low - High Noon
DYEAR=1900
DGENRE=
TTITLE0=High Noon
TTITLE1=In der Sierra Nevada
TTITLE2=Bahama Lullaby
TTITLE3=Uganda Song
TTITLE4=Theo - Theo
TTITLE5=Ein kleiner Boy
TTITLE6=Olé o' Cangaceiro
TTITLE7=Hernado's Hideaway
TTITLE8=Und es weht der Wind
TTITLE9=Wenn die Schottenmädchen tanzen gehn
TTITLE10=Heimliche Liebe
TTITLE11=Vergiß mich nicht
EXTD=
EXTT0=
EXTT1=
EXTT2=
EXTT3=
EXTT4=
EXTT5=
EXTT6=
EXTT7=
EXTT8=
EXTT9=
EXTT10=
EXTT11=
PLAYORDER=
